<svg xmlns="http://www.w3.org/2000/svg" width="160" height="160" viewBox="0 0 160 160"><path fill="#008CDB" d="M67.136 81.073v25.723h25.7V81.073h-25.7zm23.563 23.496H69.34v-21.36H90.7v21.36z"/><path fill="#82D8F9" d="M73.36 92.27c.007.688.032 1.772.11 2.987a56.39 56.39 0 0 0 .4 3.897l3.434-3.269s-.125-1.635.078-4.077c0 0-3.803-.454-4.023.462zM81.27 100.544c.89-.252.63-3.987.63-3.987-2.449.082-4.076-.124-4.076-.124l-3.434 3.269s1.819.355 3.873.59c1.16.133 2.73.242 2.95.257a.227.227 0 0 0 .058-.005z"/><path fill="#82D8F9" d="M73.357 92.06l.002.21c.04-.167.104-.283.243-.46.282-.358.739-.452.922-.476.93-.122 2.302-.272 3.689-.315 2.449-.075 4.069.128 4.069.128l3.434-3.269s-1.802-.343-3.856-.585a56.544 56.544 0 0 0-3.186-.28c-.045-.002-.52-.06-.967.364l-3.937 3.736c-.446.424-.413.902-.413.946zM81.45 100.564l-.21-.013c.169-.032.289-.089.471-.219.372-.265.489-.716.522-.897.167-.923.385-2.287.496-3.67.196-2.442.073-4.07.073-4.07l3.434-3.269s.255 1.817.394 3.88c.091 1.347.116 2.535.123 3.197 0 .044.035.522-.411.947l-3.926 3.747c-.445.426-.92.369-.965.367z"/><path fill="#008CDB" d="M69.34 79.826h1.334v2.356H69.34zM73.345 79.826h1.334v2.356h-1.334zM77.35 79.826h1.334v2.356H77.35zM81.355 79.826h1.334v2.356h-1.334zM85.36 79.826h1.334v2.356H85.36zM89.365 79.826h1.334v2.356h-1.334zM69.34 105.618h1.334v2.356H69.34zM73.345 105.618h1.334v2.356h-1.334zM77.35 105.618h1.334v2.356H77.35zM81.355 105.618h1.334v2.356h-1.334zM85.36 105.618h1.334v2.356H85.36zM89.365 105.618h1.334v2.356h-1.334zM65.958 103.234h2.356v1.334h-2.356zM65.958 99.229h2.356v1.334h-2.356zM65.958 95.224h2.356v1.334h-2.356zM65.958 91.219h2.356v1.334h-2.356zM65.958 87.214h2.356v1.334h-2.356zM65.958 83.209h2.356v1.334h-2.356zM91.657 103.234h2.356v1.334h-2.356zM91.657 99.229h2.356v1.334h-2.356zM91.657 95.224h2.356v1.334h-2.356zM91.657 91.219h2.356v1.334h-2.356zM91.657 87.214h2.356v1.334h-2.356zM91.657 83.209h2.356v1.334h-2.356z"/><path fill="#82D8F9" d="M96.792 84.174v-1.308h2.805l14.24-14.172-3.366-3.125 10.535-10.535-13.53-13.529-6.176 6.177-3.786-3.787v-7.832L92.97 31.52l5.339-5.339 20.279 20.279v-4.844l-9.1-9.099 3.56-3.56-6.466-6.466.931-.919 7.385 7.385-3.56 3.56 8.558 8.558v8.542L98.31 28.031l-3.49 3.49 4.002 4v7.832l2.478 2.479 6.177-6.176 15.378 15.378-10.504 10.504 3.37 3.128-15.583 15.508z"/><path fill="#82D8F9" d="M87.866 77.602V74.94h8.25l4.415-4.383-6.492-6.496-8.63.012V53.436h4.414l10.125 10.125 5.554-5.555-11.165-11.165H83.843V34.097l8.131-8.13-2.244-2.244-7.24 7.24v-9.61l4.585-4.584h7.145l11.69 11.69 1.562-1.56.925.924-2.486 2.486-12.233-12.232h-6.062l-3.818 3.817v5.911l5.932-5.932 4.094 4.093-8.673 8.673v10.894h9.727l12.473 12.473-7.403 7.404L89.28 54.744h-2.563v8.02l7.863-.012 7.8 7.804-5.723 5.69h-7.484v1.356zM96.792 87.275v-1.308h5.314L112.96 75.1l8.85.061 6.284-6.283-2.92-2.92-4.327 4.326-4.798-4.8 9.219-9.218.963.886-8.333 8.333 2.95 2.949 4.326-4.326 4.77 4.77-7.593 7.591-8.849-.062-10.855 10.868z"/><path fill="#82D8F9" d="M104.816 93.957h-8.024V92.65h8.66l5.38 5.03 7.417-7.417-6.34-6.34 4.072-4.07h8.533v1.307h-7.991l-2.764 2.764 6.34 6.34-9.263 9.262z"/><path fill="#82D8F9" d="M111.353 118.126l-7.66-7.687 6.512-6.513-7.202-6.81h-6.21v-1.308h6.752l8.51 8.118-6.513 6.513 6.352 6.379 3.443.095-6.104-6.105 6.45-6.45-3.236-3.237 9.568-9.567.925.925-8.643 8.642 3.236 3.236-6.45 6.45 7.412 7.414z"/><path fill="#82D8F9" d="M109.502 121.51l-11.534-11.557 6.042-5.925-3.988-3.841h-3.23v-1.308h3.774l5.291 5.151-6.007 5.984 10.194 10.189h9.977l1.747-1.747-7.85-7.849 4.457-4.456v-6.45l7.983-7.983V78.782l4.697-4.697v26.267l-10.324 10.324 1.53 1.344 2.124-2.125.925.925-3.05 3.05-3.379-3.194 10.866-10.866V77.242l-2.081 2.082V92.26l-7.983 7.982v6.45l-3.914 3.915 7.848 7.849-3.055 3.055z"/><path fill="#82D8F9" d="M108.435 125.425l-7.32-7.321-2.323 2.324-8.24-8.496 7.44-7.44-.515-.478h-.685v-1.308h1.198l1.887 1.75-7.477 7.477 6.393 6.643 2.321-2.322 7.863 7.863 6.663.032v1.308zM90.71 136.059l6.715-6.716-3.147-3.092-3.667 3.667-6.615-7.867V110.4h1.308v11.111l5.309 6.555 3.657-3.657 5.013 4.926-6.723 6.724 5.323 5.323 8.418-8.419.925.925-9.343 9.343z"/><path fill="#82D8F9" d="M100.975 121.885l-2.02 2.02-7.626-7.625-2.487 2.073V110.4h-1.308v11.11l3.738-3.324 7.625 7.625 1.995-1.994 4.045 4.045-8.417 8.416 1.015 1.015 9.42-9.42zM107.743 88.244l-2.445 2.42h-8.506v-1.309h7.967l2.988-2.957 5.15 4.832-.926.924zM84.021 77.602v-5.867h9.604l1.553-1.554-1.553-1.553H82.099V49.574H92.51l7.308 7.308-.925.925-6.925-6.925h-8.562V67.32h10.76l2.86 2.861-2.86 2.862h-8.838v4.56zM96.792 80.59v-1.308h1.39l9.593-9.526-4.342-4.27 9.303-9.303-7.309-7.31.925-.924 8.234 8.234-9.296 9.295 4.345 4.274L98.722 80.59z"/><path fill="#B4E5F9" d="M92.323 34.982h-4.64v8.228h7.16v-5.707zM117.133 84.267l.88-.862 4.557-.126 1.738 1.752-3.157 3.33z"/><path fill="#008CDB" d="M100.58 41.837l-.125-4.558 1.752-1.738 3.33 3.158-4.094 4.017zM121.7 101.114l5.812-5.812v3.988l-5.812 5.812z"/><path fill="#82D8F9" d="M63.208 84.174v-1.308h-2.805l-14.24-14.172 3.366-3.125-10.535-10.535 13.53-13.529 6.176 6.177 3.786-3.787v-7.832l4.543-4.543-5.339-5.339L41.411 46.46v-4.844l9.1-9.099-3.56-3.56 6.466-6.466-.931-.919-7.385 7.385 3.56 3.56-8.558 8.558v8.542L61.69 28.031l3.49 3.49-4.002 4v7.832L58.7 45.832l-6.177-6.176-15.378 15.378 10.504 10.504-3.37 3.128 15.583 15.508z"/><path fill="#82D8F9" d="M72.134 77.602V74.94h-8.25l-4.415-4.383 6.492-6.496 8.63.012V53.436h-4.414L60.052 63.561l-5.554-5.555 11.165-11.165h10.494V34.097l-8.131-8.13 2.244-2.244 7.24 7.24v-9.61l-4.585-4.584H65.78l-11.69 11.69-1.562-1.56-.925.924 2.486 2.486 12.233-12.232h6.062l3.818 3.817v5.911l-5.932-5.932-4.094 4.093 8.673 8.673v10.894h-9.727L52.649 58.006l7.403 7.404L70.72 54.744h2.563v8.02l-7.863-.012-7.8 7.804 5.723 5.69h7.484v1.356zM63.208 87.275v-1.308h-5.314L47.04 75.1l-8.85.061-6.284-6.283 2.92-2.92 4.327 4.326 4.798-4.8-9.219-9.218-.963.886 8.333 8.333-2.95 2.949-4.326-4.326-4.77 4.77 7.593 7.591 8.849-.062 10.855 10.868z"/><path fill="#82D8F9" d="M55.184 93.957h8.024V92.65h-8.66l-5.38 5.03-7.417-7.417 6.34-6.34-4.072-4.07h-8.533v1.307h7.991l2.764 2.764-6.34 6.34 9.263 9.262z"/><path fill="#82D8F9" d="M48.647 118.126l7.66-7.687-6.512-6.513 7.202-6.81h6.21v-1.308h-6.752l-8.51 8.118 6.513 6.513-6.352 6.379-3.443.095 6.104-6.105-6.45-6.45 3.236-3.237-9.568-9.567-.925.925 8.643 8.642-3.236 3.236 6.45 6.45-7.412 7.414z"/><path fill="#82D8F9" d="M50.498 121.51l11.534-11.557-6.042-5.925 3.988-3.841h3.23v-1.308h-3.774l-5.291 5.151 6.007 5.984-10.194 10.189H39.98l-1.747-1.747 7.85-7.849-4.457-4.456v-6.45l-7.983-7.983V78.782l-4.697-4.697v26.267l11.203 11.202.97-.878L30.254 99.81V77.242l2.081 2.082V92.26l7.983 7.982v6.45l3.914 3.915-7.848 7.849 3.055 3.055z"/><path fill="#82D8F9" d="M51.565 125.425l7.32-7.321 2.323 2.324 8.24-8.496-7.44-7.44.515-.478h.685v-1.308H62.01l-1.887 1.75 7.477 7.477-6.393 6.643-2.321-2.322-7.863 7.863-6.663.032v1.308zM69.29 136.059l-6.715-6.716 3.147-3.092 3.667 3.667 6.615-7.867V110.4h-1.308v11.111l-5.309 6.555-3.657-3.657-5.013 4.926 6.723 6.724-5.323 5.323-8.418-8.419-.925.925 9.343 9.343z"/><path fill="#82D8F9" d="M59.025 121.885l2.02 2.02 7.626-7.625 2.487 2.073V110.4h1.308v11.11l-3.738-3.324-7.625 7.625-1.995-1.994-4.045 4.045 8.417 8.416-1.015 1.015-9.42-9.42zM52.257 88.244l2.445 2.42h8.506v-1.309H55.24l-2.988-2.957-5.15 4.832.926.924zM75.979 77.602v-5.867h-9.604l-1.553-1.554 1.553-1.553h11.526V49.574H67.49l-7.308 7.308.925.925 6.925-6.925h8.562V67.32h-10.76l-2.86 2.861 2.86 2.862h8.838v4.56zM63.208 80.59v-1.308h-1.39l-9.593-9.526 4.342-4.27-9.303-9.303 7.309-7.31-.925-.924-8.234 8.234 9.296 9.295-4.345 4.274L61.278 80.59z"/><path fill="#B4E5F9" d="M67.677 34.982h4.64v8.228h-7.16v-5.707zM42.867 84.267l-.88-.862-4.557-.126-1.738 1.752 3.157 3.33z"/><path fill="#008CDB" d="M59.42 41.837l.125-4.558-1.752-1.738-3.33 3.158 4.094 4.017zM38.3 101.114l-5.812-5.812v3.988l5.812 5.812z"/></svg>